<svg xmlns="http://www.w3.org/2000/svg" version="1.1" xmlns:xlink="http://www.w3.org/1999/xlink" xmlns:svgjs="http://svgjs.dev/svgjs" width="1000" height="1266" viewBox="0 0 1000 1266"><g transform="matrix(1,0,0,1,0.9105559951244118,0.5125506072873804)"><svg viewBox="0 0 195 247" data-background-color="#ffffff" preserveAspectRatio="xMidYMid meet" height="1266" width="1000" xmlns="http://www.w3.org/2000/svg" xmlns:xlink="http://www.w3.org/1999/xlink"><g id="tight-bounds" transform="matrix(1,0,0,1,-0.17755841904926228,-0.09999999999999432)"><svg viewBox="0 0 195.35511683809852 247.2" height="247.2" width="195.35511683809852"><g><svg viewBox="0 0 395.52 500.4862200821156" height="247.2" width="195.35511683809852"><g transform="matrix(1,0,0,1,0,280.3932577253235)"><svg viewBox="0 0 395.52 220.0929623567921" height="220.0929623567921" width="395.52"><g id="textblocktransform"><svg viewBox="0 0 395.52 220.0929623567921" height="220.0929623567921" width="395.52" id="textblock"><g><svg viewBox="0 0 395.52 220.0929623567921" height="220.0929623567921" width="395.52"><g transform="matrix(1,0,0,1,0,0)"><svg width="395.52" viewBox="1.8 -33.5 61.1 34" height="220.0929623567921" data-palette-color="#4790fc"><path d="M24.1-12.25L33.2-9.8Q32.3-6.15 30.18-3.85 28.05-1.55 25.03-0.53 22 0.5 18.35 0.5L18.35 0.5Q13.25 0.5 9.53-1.53 5.8-3.55 3.8-7.35 1.8-11.15 1.8-16.5L1.8-16.5Q1.8-21.85 3.8-25.65 5.8-29.45 9.53-31.48 13.25-33.5 18.3-33.5L18.3-33.5Q21.9-33.5 24.93-32.5 27.95-31.5 30.05-29.4 32.15-27.3 32.9-23.95L32.9-23.95 24.05-20.4Q23.5-23.6 22.13-24.65 20.75-25.7 18.6-25.7L18.6-25.7Q16.6-25.7 15.18-24.68 13.75-23.65 13.03-21.63 12.3-19.6 12.3-16.5L12.3-16.5Q12.3-13.45 12.98-11.4 13.65-9.35 15.08-8.33 16.5-7.3 18.8-7.3L18.8-7.3Q20.85-7.3 22.25-8.5 23.65-9.7 24.1-12.25L24.1-12.25ZM47.2-33L47.2-7.65 62.9-7.65 62.9 0 37 0 37-33 47.2-33Z" opacity="1" transform="matrix(1,0,0,1,0,0)" fill="#4790fc" class="wordmark-text-0" data-fill-palette-color="primary" id="text-0"></path></svg></g></svg></g></svg></g></svg></g><g transform="matrix(1,0,0,1,75.54432000000001,0)"><svg viewBox="0 0 244.43135999999996 228.43459154398147" height="228.43459154398147" width="244.43135999999996"><g><svg xmlns="http://www.w3.org/2000/svg" xmlns:xlink="http://www.w3.org/1999/xlink" version="1.0" x="8" y="0" viewBox="9.99966083705561 9.999911110455857 80.00029631437658 80.00142805248852" enable-background="new 0 0 100 100" xml:space="preserve" height="228.43459154398147" width="228.43135999999996" class="icon-icon-0" data-fill-palette-color="accent" id="icon-0"><path d="M86.674 33.332H66.66V13.327c-11.106-4.604-23.04-4.265-33.334 0v20.005h-20c-4.603 11.107-4.264 23.039 0 33.336h20v20.007c11.107 4.603 23.041 4.264 33.334 0V66.668h20.014C91.276 55.558 90.938 43.625 86.674 33.332zM33.326 56.668v3.333H18.053c-1.863-6.563-1.863-13.445 0-20.002h31.94v-6.667h-10V18.055c3.255-0.922 6.614-1.389 10.02-1.389 3.391 0 6.732 0.466 9.98 1.387v25.28c0 1.841-1.494 3.333-3.333 3.333H43.327C37.806 46.667 33.326 51.144 33.326 56.668zM81.946 60.001H49.994v6.667h10v15.279c-3.255 0.921-6.611 1.387-10.019 1.387-3.389 0-6.732-0.466-9.98-1.387V56.668c0-1.844 1.493-3.334 3.333-3.334H56.66c5.521 0 10-4.476 10-10v-3.335h15.286C83.809 46.56 83.809 53.441 81.946 60.001z" fill="#ffdc00" data-fill-palette-color="accent"></path><circle cx="48.326" cy="25" r="3.3" fill="#ffdc00" data-fill-palette-color="accent"></circle><circle cx="51.659" cy="75" r="3.3" fill="#ffdc00" data-fill-palette-color="accent"></circle></svg></g></svg></g><g></g></svg></g><defs></defs></svg><rect width="195.35511683809852" height="247.2" fill="none" stroke="none" visibility="hidden"></rect></g></svg></g></svg>