<svg xmlns="http://www.w3.org/2000/svg" version="1.1" xmlns:xlink="http://www.w3.org/1999/xlink" xmlns:svgjs="http://svgjs.dev/svgjs" width="2000" height="702" viewBox="0 0 2000 702"><g transform="matrix(1,0,0,1,-1.212105567175172,-0.8209393965800018)"><svg viewBox="0 0 396 139" data-background-color="#ffffff" preserveAspectRatio="xMidYMid meet" height="702" width="2000" xmlns="http://www.w3.org/2000/svg" xmlns:xlink="http://www.w3.org/1999/xlink"><g id="tight-bounds" transform="matrix(1,0,0,1,0.2400029163477484,0.16255102065571236)"><svg viewBox="0 0 395.52 138.67489830110415" height="138.67489830110415" width="395.52"><g><svg viewBox="0 0 395.52 138.67489830110415" height="138.67489830110415" width="395.52"><g><svg viewBox="0 0 697.1619698245423 244.434833294943" height="138.67489830110415" width="395.52"><g transform="matrix(1,0,0,1,301.64196982454234,1.0475183423867236)"><svg viewBox="0 0 395.52 242.33979661016954" height="242.33979661016954" width="395.52"><g id="textblocktransform"><svg viewBox="0 0 395.52 242.33979661016954" height="242.33979661016954" width="395.52" id="textblock"><g><svg viewBox="0 0 395.52 242.33979661016954" height="242.33979661016954" width="395.52"><g transform="matrix(1,0,0,1,0,0)"><svg width="395.52" viewBox="2.299999952316284 -35.70000076293945 59 36.150001525878906" height="242.33979661016954" data-palette-color="#0074d9"><path d="M20.3 0.45Q14.8 0.45 10.73-1.8 6.65-4.05 4.48-8.15 2.3-12.25 2.3-17.65L2.3-17.65Q2.3-23.05 4.48-27.13 6.65-31.2 10.73-33.45 14.8-35.7 20.3-35.7L20.3-35.7Q23.75-35.7 26.98-34.65 30.2-33.6 32.25-31.85L32.25-31.85 29.4-25.35Q25.05-28.4 20.5-28.4L20.5-28.4Q16.2-28.4 13.93-25.7 11.65-23 11.65-17.65L11.65-17.65Q11.65-12.3 13.93-9.58 16.2-6.85 20.5-6.85L20.5-6.85Q25.05-6.85 29.4-9.9L29.4-9.9 32.25-3.4Q30.2-1.65 26.98-0.6 23.75 0.45 20.3 0.45L20.3 0.45ZM61.3 0L37.1 0 37.1-35.25 46.3-35.25 46.3-7.45 61.3-7.45 61.3 0Z" opacity="1" transform="matrix(1,0,0,1,0,0)" fill="#0074d9" class="wordmark-text-0" data-fill-palette-color="primary" id="text-0"></path></svg></g></svg></g></svg></g></svg></g><g><svg viewBox="0 0 244.43135999999998 244.434833294943" height="244.434833294943" width="244.43135999999998"><g><svg xmlns="http://www.w3.org/2000/svg" xmlns:xlink="http://www.w3.org/1999/xlink" version="1.0" x="0" y="0" viewBox="9.999664306640625 9.999911308288574 80.00029754638672 80.00143432617188" enable-background="new 0 0 100 100" xml:space="preserve" height="244.434833294943" width="244.43135999999998" class="icon-icon-0" data-fill-palette-color="accent" id="icon-0"><path d="M86.674 33.332H66.66V13.327c-11.106-4.604-23.04-4.265-33.334 0v20.005h-20c-4.603 11.107-4.264 23.039 0 33.336h20v20.007c11.107 4.603 23.041 4.264 33.334 0V66.668h20.014C91.276 55.558 90.938 43.625 86.674 33.332zM33.326 56.668v3.333H18.053c-1.863-6.563-1.863-13.445 0-20.002h31.94v-6.667h-10V18.055c3.255-0.922 6.614-1.389 10.02-1.389 3.391 0 6.732 0.466 9.98 1.387v25.28c0 1.841-1.494 3.333-3.333 3.333H43.327C37.806 46.667 33.326 51.144 33.326 56.668zM81.946 60.001H49.994v6.667h10v15.279c-3.255 0.921-6.611 1.387-10.019 1.387-3.389 0-6.732-0.466-9.98-1.387V56.668c0-1.844 1.493-3.334 3.333-3.334H56.66c5.521 0 10-4.476 10-10v-3.335h15.286C83.809 46.56 83.809 53.441 81.946 60.001z" fill="#ffdc00" data-fill-palette-color="accent"></path><circle cx="48.326" cy="25" r="3.3" fill="#ffdc00" data-fill-palette-color="accent"></circle><circle cx="51.659" cy="75" r="3.3" fill="#ffdc00" data-fill-palette-color="accent"></circle></svg></g></svg></g></svg></g></svg></g><defs></defs></svg><rect width="395.52" height="138.67489830110415" fill="none" stroke="none" visibility="hidden"></rect></g></svg></g></svg>